<svg preserveAspectRatio="none" overflow="visible" style="display: block;" width="23.9999" height="18" viewBox="0 0 23.9999 18" fill="none" xmlns="http://www.w3.org/2000/svg">
<g id="Group">
<path id="Vector" d="M21.8512 18C23.0389 18 23.9999 16.9915 23.9999 15.7452V14.6416V10.8076V9.66596C23.9999 8.4482 23.057 7.44926 21.8874 7.44926H16.9825V2.01691C16.9915 0.903805 16.1302 0 15.0695 0H6.78271V8.86681C6.78271 9.78964 7.49896 10.5412 8.37841 10.5412C9.25786 10.5412 9.97411 9.78964 9.97411 8.86681V5.35624C9.97411 4.25264 10.8264 3.35835 11.8781 3.35835C12.9298 3.35835 13.782 4.25264 13.782 5.35624V7.44926V10.8076H18.968C19.9744 10.8076 20.7995 11.6638 20.7995 12.7294C20.7995 13.7854 19.9835 14.6512 18.968 14.6512H15.3868C14.5073 14.6512 13.7911 15.4027 13.7911 16.3256C13.7911 17.2484 14.5073 18 15.3868 18H20.7995H21.8512Z" fill="url(#paint0_linear_0_4)"/>
<path id="Vector_2" d="M8.60407 14.6416H4.79615C3.91671 14.6416 3.20046 13.8901 3.20046 12.9672V0H1.60476C0.71625 0 0 0.751586 0 1.67442V14.6416V16.3161C0 17.2484 0.71625 18 1.5957 18H3.19139H8.60407C9.48351 18 10.1998 17.2484 10.1998 16.3256C10.1998 15.4027 9.48351 14.6512 8.60407 14.6512V14.6416Z" fill="url(#paint1_linear_0_4)"/>
</g>
<defs>
<linearGradient id="paint0_linear_0_4" x1="10.3998" y1="13.7045" x2="22.2867" y2="0.879757" gradientUnits="userSpaceOnUse">
<stop stop-color="#39FF14"/>
<stop offset="1" stop-color="white"/>
</linearGradient>
<linearGradient id="paint1_linear_0_4" x1="6.59986" y1="-2.65909" x2="-0.273192" y2="17.9087" gradientUnits="userSpaceOnUse">
<stop stop-color="#DFC6FF"/>
<stop offset="1" stop-color="#6528FF"/>
</linearGradient>
</defs>
</svg>
